# xmcd
#
# Track frame offsets:
#	150
#	15572
#	28185
#	45071
#	57950
#	71025
#	86364
#	102807
#	119897
#	131618
#	147069
#	162777
#	177873
#	195090
#	209565
#	228534
#	241988
#	260610
#	273061
#	286679
#	301282
#	319384
#	334610
#	344265
#
# Disc length: 4794 seconds
#
# Revision: 1
# Processed by: cddbd v1.5.2PL0 Copyright (c) Steve Scherf et al.
# Submitted via: audiograbber 1.83.01
#
DISCID=4f12b818
DTITLE=Glenn Erickson - Diamondback Records Compilation 012
DYEAR=2015
DGENRE=Country
TTITLE0=Oh Tennesse -Allen Karl
TTITLE1=Elvis and Jesus -Ann Pascoe
TTITLE2=SWtorms Never Last -Allen Karl and Donna Cunningham
TTITLE3=He Sent Her To Me -B Jeff Stone
TTITLE4=Think Again -Donna Cunningham 
TTITLE5=Taking The Fifth -Chris Anderson
TTITLE6=Get A Hob -Katherine Archer
TTITLE7=Gypsy Woman -Rex Allen Jr
TTITLE8=The End Of Time -Ann Pascoe and Hermann Lammers Meyer
TTITLE9=Much To Beautiful -Glenn Erickson
TTITLE10=If Ya Wonna Be A Country Singer -Noel Parlane
TTITLE11=Time To Get Away -Crawford Boyd
TTITLE12=Delaware Moon -Pecos Red
TTITLE13=Margarita -Dave Parks
TTITLE14=Ain´t It Goog To Be Back -John Dickie IV
TTITLE15=Easy Pickin´s -William Ray
TTITLE16=Rosie´s Bar -Trevor V Stevens
TTITLE17=The Letter -Jim Vensble
TTITLE18=Coolest Cat In Town -Phillips Clarkson
TTITLE19=I Like To Drive -Wendy Ford
TTITLE20=For The Life Of Me -Walter Wiz walsh
TTITLE21=The Saddest Place Of All -Ray Bartley and Jan Linder Koda
TTITLE22=Blue Boy -Peter Frew
TTITLE23=All I Ask Of You -Glenn Erickson and Jackie Zimmer
EXTD=
EXTT0=
EXTT1=
EXTT2=
EXTT3=
EXTT4=
EXTT5=
EXTT6=
EXTT7=
EXTT8=
EXTT9=
EXTT10=
EXTT11=
EXTT12=
EXTT13=
EXTT14=
EXTT15=
EXTT16=
EXTT17=
EXTT18=
EXTT19=
EXTT20=
EXTT21=
EXTT22=
EXTT23=
PLAYORDER=
